<svg xmlns="http://www.w3.org/2000/svg" width="26" height="26" fill="none"><path fill="#fff" d="M24.784 1.223a2.42 2.42 0 0 0-2.412-.625L2.259 6.409A2.39 2.39 0 0 0 .531 8.298c-.178.932.442 2.117 1.252 2.612l6.289 3.84a1.635 1.635 0 0 0 2.011-.238l7.201-7.202a.92.92 0 0 1 1.325 0 .943.943 0 0 1 0 1.325l-7.214 7.202a1.64 1.64 0 0 0-.24 2.01l3.842 6.313a2.39 2.39 0 0 0 2.075 1.175c.1 0 .212 0 .312-.013a2.43 2.43 0 0 0 2.038-1.725l5.962-19.962a2.43 2.43 0 0 0-.6-2.412"/><path fill="#fff" d="M9.814 21.928a.94.94 0 0 1 0 1.326L8.107 24.96a.93.93 0 0 1-.663.275.936.936 0 0 1-.663-1.6l1.707-1.707a.94.94 0 0 1 1.326 0m-.98-4.735a.94.94 0 0 1 0 1.326l-1.707 1.706a.93.93 0 0 1-.662.275.936.936 0 0 1-.662-1.6l1.706-1.707a.94.94 0 0 1 1.326 0m-4.7-1.49a.94.94 0 0 1 0 1.326l-1.708 1.706a.93.93 0 0 1-.663.275.936.936 0 0 1-.663-1.6l1.707-1.708a.94.94 0 0 1 1.326 0" opacity=".4"/></svg>