<svg xmlns="http://www.w3.org/2000/svg" width="69" height="30" fill="none"><g clip-path="url(#a)"><path fill="#666" d="M15 30.017c8.284 0 15-6.716 15-15 0-8.285-6.716-15-15-15s-15 6.715-15 15 6.716 15 15 15"/><path fill="#141414" d="M0 45c8.284 0 15-6.716 15-15S8.284 15 0 15s-15 6.716-15 15 6.716 15 15 15M30 45c8.284 0 15-6.716 15-15s-6.716-15-15-15-15 6.716-15 15 6.716 15 15 15M0 15c8.284 0 15-6.716 15-15S8.284-15 0-15-15-8.284-15 0s6.716 15 15 15M30 15c8.284 0 15-6.716 15-15s-6.716-15-15-15S15-8.284 15 0s6.716 15 15 15"/></g><g clip-path="url(#b)"><path fill="#333" d="M45 24.01a9 9 0 1 0 0-18 9 9 0 0 0 0 18"/><path fill="#141414" d="M36 33a9 9 0 1 0 0-18 9 9 0 0 0 0 18"/><path fill="#141414" d="M54 33a9 9 0 1 0 0-18 9 9 0 0 0 0 18M36 15a9 9 0 1 0 0-18 9 9 0 0 0 0 18"/><path fill="#141414" d="M54 15a9 9 0 1 0 0-18 9 9 0 0 0 0 18"/></g><g clip-path="url(#c)"><path fill="#333" d="M64.2 19.205a4.2 4.2 0 1 0 0-8.4 4.2 4.2 0 0 0 0 8.4"/><path fill="#141414" d="M60 23.4a4.2 4.2 0 1 0 0-8.4 4.2 4.2 0 0 0 0 8.4"/><path fill="#141414" d="M68.4 23.4a4.2 4.2 0 1 0 0-8.4 4.2 4.2 0 0 0 0 8.4M60 15a4.2 4.2 0 1 0 0-8.4 4.2 4.2 0 0 0 0 8.4"/><path fill="#141414" d="M68.4 15a4.2 4.2 0 1 0 0-8.4 4.2 4.2 0 0 0 0 8.4"/></g><defs><clipPath id="a"><path fill="#fff" d="M0 0h30v30H0z"/></clipPath><clipPath id="b"><path fill="#fff" d="M36 6h18v18H36z"/></clipPath><clipPath id="c"><path fill="#fff" d="M60 10.8h8.4v8.4H60z"/></clipPath></defs></svg>