<svg xmlns="http://www.w3.org/2000/svg" width="18" height="21" fill="none"><path fill="#fff" fill-rule="evenodd" d="M1.8 18.3V2.7h-.3a.9.9 0 1 1 0-1.8h15a.9.9 0 1 1 0 1.8h-.3v15.6h.3a.9.9 0 0 1 0 1.8h-4.2a.9.9 0 0 1-.9-.9v-3a.9.9 0 0 0-.9-.9h-3a.9.9 0 0 0-.9.9v3a.9.9 0 0 1-.9.9H1.5a.9.9 0 1 1 0-1.8zM5.4 5.1a.6.6 0 0 1 .6-.6h1.2a.6.6 0 0 1 .6.6v1.2a.6.6 0 0 1-.6.6H6a.6.6 0 0 1-.6-.6zM6 9.3a.6.6 0 0 0-.6.6v1.2a.6.6 0 0 0 .6.6h1.2a.6.6 0 0 0 .6-.6V9.9a.6.6 0 0 0-.6-.6zm4.2-4.2a.6.6 0 0 1 .6-.6H12a.6.6 0 0 1 .6.6v1.2a.6.6 0 0 1-.6.6h-1.2a.6.6 0 0 1-.6-.6zm.6 4.2a.6.6 0 0 0-.6.6v1.2a.6.6 0 0 0 .6.6H12a.6.6 0 0 0 .6-.6V9.9a.6.6 0 0 0-.6-.6z" clip-rule="evenodd"/></svg>