<svg width="690" height="622" viewBox="0 0 690 622" fill="none" xmlns="http://www.w3.org/2000/svg">
<g clip-path="url(#clip0_139_6387)">
<path d="M-671.154 765.072C-480.448 719.75 -305.53 757.582 -120.744 807.931C-34.9383 831.297 50.8166 845.429 138.186 821.191C184.421 808.367 227.452 787.232 268.766 763.148C333.505 725.419 389.351 665.273 454.526 631.057C625.702 541.21 727.219 761.506 875.15 796.594C944.682 813.086 985.406 775.28 1047.33 755.761C1122.27 732.139 1188.88 771.381 1251 810.239" stroke="url(#paint0_linear_139_6387)" stroke-miterlimit="10"/>
<path d="M-671.154 729.471C-489.034 679.251 -334.363 728.856 -161.776 785.642C-76.1754 813.804 9.1951 834.887 98.4099 811.804C234.141 776.691 322.613 669.838 436.688 597.842C621.935 480.961 704.486 741.244 866.103 774.382C936.07 788.745 975.642 744.091 1037.48 722.52C1115.81 695.205 1188.11 744.399 1251.03 786.437" stroke="url(#paint1_linear_139_6387)" stroke-miterlimit="10"/>
<path d="M-671.154 694.05C-494.442 636.931 -358.762 701.129 -196.478 764.764C-108.852 799.107 -20.2271 826.962 73.1396 798.569C211.562 756.479 301.777 641.83 416.21 562.088C610.761 426.535 674.628 716.185 841.73 750.247C912.85 764.738 956.753 715.185 1017.65 690.998C1103.66 656.834 1182.62 714.98 1251.03 762.763" stroke="url(#paint2_linear_139_6387)" stroke-miterlimit="10"/>
<path d="M-671.154 659.271C-591.986 629.082 -514.714 622.131 -432.83 646.498C-357.224 668.992 -292.305 714.415 -220.954 746.553C-136.686 784.513 -50.1106 817.805 42.1028 787.565C188.573 739.525 276.737 609.076 396.271 522.538C589.822 382.393 646.129 681.123 805.029 721.417C885.479 741.808 932.098 682.688 1000.5 655.654C1092.95 619.105 1179.32 687.33 1251.03 739.013" stroke="url(#paint3_linear_139_6387)" stroke-miterlimit="10"/>
<path d="M-671.154 625.697C-599.905 593.405 -528.913 583.351 -453.666 608.589C-379.547 633.443 -319.344 685.766 -251.068 721.982C-171.644 764.123 -89.9126 806.417 1.48067 779.435C154.717 734.242 250.903 587.737 369.822 492.939C572.599 331.275 606.25 656.372 772.377 693.794C857.62 713.005 910.697 644.446 983.894 617.72C1082.36 581.786 1176.8 660.297 1251 715.236" stroke="url(#paint4_linear_139_6387)" stroke-miterlimit="10"/>
<path d="M-671.154 593.815C-506.488 505.327 -407.585 610 -273.468 694.589C-197.298 742.629 -115.285 798.21 -21.9443 767.277C129.216 717.185 228.657 566.576 343.244 466.418C417.21 401.784 488.023 386.779 551.378 468.547C606.327 539.44 641.618 641.547 739.393 662.092C824.533 679.969 884.658 609.794 957.701 581.196C1065.19 539.081 1171.6 631.16 1251.03 691.511" stroke="url(#paint5_linear_139_6387)" stroke-miterlimit="10"/>
<path d="M-671.154 564.165C-511.665 463.853 -412.275 568.013 -286.488 662.554C-219.391 712.979 -143.426 782.821 -52.776 759.147C2.40335 744.732 51.3293 703.771 93.4635 667.607C174.451 598.124 241.676 516.151 318.564 442.744C392.273 372.364 464.931 344.664 528.133 437.512C575.239 506.712 611.376 613.616 706.075 628.723C796.11 643.086 862.002 565.781 940.965 539.055C1054.86 500.48 1169.68 604.152 1251.03 667.709" stroke="url(#paint6_linear_139_6387)" stroke-miterlimit="10"/>
<path d="M-671.154 537.286C-608.978 492.529 -540.369 464.443 -464.61 491.708C-397.154 515.997 -344.717 572.424 -292.869 619.438C-234.435 672.428 -160.623 766.508 -70.9215 748.015C-20.4322 737.602 23.983 698.924 61.709 665.991C144.978 593.277 217.969 509.046 292.832 428.022C362.902 352.153 440.558 297.573 505.912 403.168C549.917 474.241 584.081 586.659 683.88 590.609C772.454 594.123 839.013 523.333 918.847 497.222C1041.3 457.185 1165.53 574.861 1251.05 643.984" stroke="url(#paint7_linear_139_6387)" stroke-miterlimit="10"/>
<path d="M-671.154 512.611C-607.338 462.853 -536.243 429.818 -455.639 458.493C-387.62 482.679 -331.287 537.824 -281.003 587.403C-228.72 638.983 -158.547 740.295 -72.9461 723.008C-25.0454 713.338 17.0888 674.583 52.4057 643.138C133.163 571.193 205.283 489.169 278.249 409.581C345.064 336.713 423.54 270.283 489.817 375.391C533.181 444.155 566.115 553.906 664.043 555.265C751.849 556.471 825.071 492.682 907.058 470.83C1034.67 436.794 1159.38 548.366 1251.03 619.643" stroke="url(#paint8_linear_139_6387)" stroke-miterlimit="10"/>
<path d="M-671.154 485.116C-600.751 429.689 -525.632 399.885 -439.57 438.359C-368.398 470.189 -306.068 530.412 -250.991 583.735C-201.578 631.596 -140.351 712.364 -62.4383 687.202C-14.8964 671.839 26.4434 630.801 61.914 597.816C133.009 531.72 199.081 460.134 266.152 390.011C330.071 323.145 407.625 258.1 476.336 351.333C525.211 417.66 556.324 523.743 653.894 528.591C740.802 532.9 824.84 475.523 908.621 460.134C1035.33 436.845 1153.17 524.256 1251.05 591.609" stroke="url(#paint9_linear_139_6387)" stroke-miterlimit="10"/>
<path d="M-671.154 454.569C-595.446 396.756 -518.303 371.339 -429.857 416.993C-362.093 451.952 -299.558 508.251 -243.815 559.626C-191.865 607.512 -128.074 690.024 -49.5725 653.5C-8.59159 634.443 25.1363 598.15 57.3264 567.448C125.038 502.814 189.085 434.28 255.208 368.056C323.612 299.548 401.115 246.429 472.082 337.508C520.931 400.219 556.119 498.941 648.743 503.045C733.959 506.841 818.612 465.982 901.779 452.388C1030.15 431.408 1144.13 496.915 1251.05 560.036" stroke="url(#paint10_linear_139_6387)" stroke-miterlimit="10"/>
<path d="M-671.154 421.533C-583.836 358.489 -500.542 344.228 -407.559 402.886C-340.744 445.027 -278.978 502.121 -219.186 553.598C-169.26 596.585 -113.107 664.067 -43.2421 624.978C-5.82364 604.049 25.3157 566.73 55.1223 536.542C118.58 472.241 180.372 406.375 245.674 343.92C313.335 279.208 390.786 232.502 462.804 314.27C516.574 375.314 553.813 472.677 646.206 481.5C727.629 489.271 816.357 457.416 896.448 445.002C1024.44 425.175 1137.05 470.445 1251 525.718" stroke="url(#paint11_linear_139_6387)" stroke-miterlimit="10"/>
<path d="M-671.154 386.625C-576.557 322.939 -489.572 316.117 -394.77 382.752C-323.24 433.024 -258.962 496.555 -190.942 551.649C-144.169 589.506 -92.4242 641.419 -33.9643 597.919C4.68432 569.167 36.2337 525.846 68.3213 490.554C122.578 430.92 178.193 372.082 237.883 317.861C311.029 251.405 390.351 220.011 464.009 300.112C517.932 358.745 559.246 450.259 647.846 460.186C731.704 469.573 822.38 447.541 905.444 436.127C1027.59 419.353 1136.31 446.669 1251.03 489.169" stroke="url(#paint12_linear_139_6387)" stroke-miterlimit="10"/>
<path d="M-671.154 350.384C-563.307 282.902 -471.632 290.083 -372.627 369.184C-297.508 429.202 -233.487 499.043 -155.19 555.676C-101.471 594.508 -62.7458 616.437 -13.7173 562.319C69.6028 470.342 137.084 365.516 234.705 286.211C306.364 228.014 385.199 206.315 456.602 274.053C516.932 331.275 557.529 419.122 644.616 439.744C725.015 458.749 825.917 440 906.751 428.971C1026.05 412.684 1133.72 422.251 1251.05 451.183" stroke="url(#paint13_linear_139_6387)" stroke-miterlimit="10"/>
<path d="M-671.154 313.424C-550.39 242.915 -452.051 265.82 -350.227 356.077C-277.287 420.738 -216.623 495.606 -133.841 548.725C-73.0743 587.737 -41.0892 594.636 0.481178 532.515C66.3479 434.101 132.65 333.507 228.605 260.921C306.185 202.211 384.789 189.028 460.6 256.714C523.724 313.09 568.652 403.784 657.918 423.739C737.086 441.436 829.479 433.024 909.288 422.149C1025.16 406.349 1134 399.219 1251.05 412.274" stroke="url(#paint14_linear_139_6387)" stroke-miterlimit="10"/>
<path d="M-671.154 276.336C-539.523 203.622 -436.546 239.453 -332.21 338.944C-258.372 409.35 -197.503 495.35 -106.597 545.262C-39.1158 582.325 -15.4345 563.063 16.7556 499.531C67.9625 398.501 132.727 296.393 227.58 230.578C307.876 174.844 389.095 173.125 464.521 237.17C530.311 293.059 578.237 381.393 666.376 406.169C855.416 459.314 1061.14 379.88 1251.05 373.288" stroke="url(#paint15_linear_139_6387)" stroke-miterlimit="10"/>
<path d="M-671.154 239.684C-605.672 204.776 -544.111 184.052 -470.837 209.47C-410.225 230.502 -360.581 274.643 -316.115 319.605C-242.764 393.832 -180.05 493.708 -82.3264 537.824C-9.02728 570.911 8.32365 526.334 33.0557 464.136C73.3702 362.669 134.239 258.715 229.349 199.313C436.637 69.8125 511.448 331.84 676.371 388.651C868.973 455.005 1062.7 371.287 1251.05 334.789" stroke="url(#paint16_linear_139_6387)" stroke-miterlimit="10"/>
<path d="M-671.154 204.058C-602.853 167.893 -539.908 147.733 -465.302 175.203C-402.715 198.235 -352.124 245.301 -306.786 292.982C-235.486 367.953 -161.751 497.735 -55.3902 527.59C19.0622 548.494 30.8004 478.781 49.6634 422.662C82.6736 324.427 139.57 216.113 234.757 164.148C432.357 56.2699 531.874 298.83 681.061 367.389C876.79 457.339 1066.32 365.106 1251.03 297.445" stroke="url(#paint17_linear_139_6387)" stroke-miterlimit="10"/>
<path d="M-671.154 170.073C-602.186 132.523 -540.062 112.133 -464.148 138.73C-401.203 160.788 -349.766 210.008 -305.017 257.971C-232.41 335.815 -154.575 483.68 -41.6787 505.738C35.0547 520.742 45.819 444.027 62.5804 386.42C91.3618 287.595 143.184 178.204 242.65 132.241C440.532 40.8037 547.252 273.668 693.209 348.973C769.199 388.164 867.589 408.247 952.242 394.602C1059.55 377.315 1157.68 313.68 1251.05 262.049" stroke="url(#paint18_linear_139_6387)" stroke-miterlimit="10"/>
<path d="M-671.154 138.269C-597.701 95.769 -526.709 71.2745 -445.388 108.003C-384.365 135.576 -335.952 186.258 -292.203 235.452C-226.644 309.166 -144.016 464.469 -33.7337 476.114C49.2788 484.885 59.7612 394.166 77.5477 332.917C105.048 238.247 154.563 136.756 254.235 100.232C450.63 28.236 564.192 244.121 705.896 328.48C777.503 371.108 871.101 400.296 954.856 389.857C1067.06 375.853 1164.17 294.598 1251 229.065" stroke="url(#paint19_linear_139_6387)" stroke-miterlimit="10"/>
<path d="M-671.154 109.26C-601.802 65.0417 -533.526 34.2633 -451.59 67.3758C-385.928 93.9222 -333.645 150.272 -288.538 202.929C-224.055 278.208 -142.965 432.767 -28.4028 435.486C53.277 437.41 68.3983 345.382 87.6713 283.928C117.478 188.976 164.61 96.8718 269.151 70.0176C469.339 18.5663 580.493 215.959 723.734 310.654C793.855 357.026 887.375 395.269 972.797 382.932C1084.51 366.773 1174.27 273.848 1251.03 199.313" stroke="url(#paint20_linear_139_6387)" stroke-miterlimit="10"/>
<path d="M-671.154 83.6371C-607.492 37.4438 -541.369 -1.2601 -460.406 25.8762C-397.308 47.0107 -347.613 98.7698 -305.146 147.861C-235.588 228.244 -165.621 371.236 -45.8818 380.367C45.1526 387.292 68.8083 298.753 95.0012 228.706C130.728 133.139 180.525 52.2174 289.936 37.4181C483.897 11.1795 595.665 178.076 730.423 283.133C797.981 335.789 889.451 386.215 977.846 377.597C1095.1 366.157 1181.39 257.048 1251.03 173.408" stroke="url(#paint21_linear_139_6387)" stroke-miterlimit="10"/>
<path d="M-671.154 63.4259C-607.799 19.1819 -542.471 -17.2393 -463.123 8.61462C-401.331 28.7488 -352.149 78.2252 -310.194 125.829C-242.611 202.467 -171.08 349.588 -54.7751 353.615C35.1573 356.719 65.9379 277.003 98.1793 206.93C139.519 117.134 195.467 34.9302 301.572 20.5926C488.741 -4.69706 605.66 151.221 738.496 250.943C803.671 299.856 895.602 349.614 979.307 347.972C1096.33 345.664 1183.01 234.272 1251.03 152.965" stroke="url(#paint22_linear_139_6387)" stroke-miterlimit="10"/>
<path d="M-671.154 49.6012C-608.799 6.89612 -544.419 -28.5247 -466.634 -4.97922C-406.534 13.2057 -358.07 59.5272 -316.781 104.874C-250.274 177.947 -179.051 323.529 -66.5133 324.222C21.7276 324.76 59.2998 254.483 97.8203 186.027C144.875 102.412 206.641 22.1827 308.978 8.12726C489.381 -16.6237 611.247 123.213 744.16 216.292C808.694 261.485 899.626 311.91 979.486 319.041C1095.92 329.428 1184.01 216.933 1251 138.551" stroke="url(#paint23_linear_139_6387)" stroke-miterlimit="10"/>
<path d="M-671.154 41.0346C-611.336 0.124898 -547.392 -35.2447 -472.683 -16.2646C-408.995 -0.105951 -358.403 48.088 -315.038 94.7429C-249.12 165.662 -183.023 297.393 -72.8949 292.494C10.4252 288.801 52.8927 225.5 96.4108 163.199C149.847 86.6636 214.356 14.8985 312.208 0.996951C489.894 -24.267 614.374 96.6153 752.617 182.846C816.485 222.704 897.524 269.975 971.105 289.032C1090.38 319.913 1181.21 208.059 1251.03 129.061" stroke="url(#paint24_linear_139_6387)" stroke-miterlimit="10"/>
<path d="M-671.154 36.623C-612.976 -3.67108 -550.39 -39.8101 -476.912 -24.8569C-415.735 -12.3916 -366.015 30.493 -323.393 73.5571C-256.553 141.064 -194.325 262.306 -87.6317 257.561C-6.69505 253.97 41.9746 200.672 91.49 143.245C150.821 74.4548 219.302 9.10197 313.386 -4.59444C483.564 -29.3711 613.964 67.2732 753.822 144.168C823.226 182.333 896.217 228.988 969.081 259.869C1086.38 309.602 1178.6 201.98 1251 123.47" stroke="url(#paint25_linear_139_6387)" stroke-miterlimit="10"/>
<path d="M-671.154 35.2637C-548.75 -51.5828 -442.876 -51.1468 -331.723 51.8327C-263.473 115.057 -205.474 223.576 -102.522 219.883C-24.2253 217.062 30.2108 173.869 85.3902 123.162C150.411 63.426 222.044 5.63943 312.387 -7.80048C474.542 -31.9359 611.837 37.9568 752.951 104.259C830.632 140.757 893.475 186.54 965.826 230.938C1080.08 301.035 1173.34 200.954 1251.05 120.802" stroke="url(#paint26_linear_139_6387)" stroke-miterlimit="10"/>
<path d="M-671.154 35.8536C-557.233 -47.6586 -452.385 -63.8686 -339.565 29.0823C-269.521 86.7919 -215.572 181.333 -116.797 179.384C47.6643 176.152 148.95 14.9499 309.696 -9.36509C463.675 -32.6541 608.326 8.6403 749.952 63.349C836.527 96.7949 891.04 144.168 961.264 201.954C1071.42 292.597 1165.04 203.929 1251.03 119.879" stroke="url(#paint27_linear_139_6387)" stroke-miterlimit="10"/>
<path d="M-671.154 37.2898C-566.972 -42.1699 -462.944 -75.8209 -349.151 2.89494C-278.799 51.5505 -227.208 132.857 -136.301 135.986C27.161 141.654 148.797 13.5135 305.672 -10.981C448.811 -33.321 601.79 -20.9327 739.88 20.5156C838.193 50.0372 888.4 103.72 957.701 175.382C983.587 202.16 1012.7 230.04 1051.58 234.246C1128.93 242.582 1201.28 165.867 1251.03 119.802" stroke="url(#paint28_linear_139_6387)" stroke-miterlimit="10"/>
<path d="M-671.154 38.4696C-574.225 -38.4252 -470.684 -87.2859 -354.353 -22.9077C-282.387 16.9247 -232.333 84.5347 -146.502 89.5362C13.1931 98.8467 147.72 13.2057 301.341 -10.6733C439.148 -32.0899 595.306 -49.9414 732.934 -20.3941C838.808 2.33061 886.427 65.7085 950.602 146.707C975.18 177.742 1003.01 213.445 1043.64 223.192C1122.11 242.018 1199.54 164.636 1251 119.519" stroke="url(#paint29_linear_139_6387)" stroke-miterlimit="10"/>
<path d="M-671.154 38.2646C-576.557 -39.7075 -471.427 -100.059 -349.638 -48.0433C-283.233 -19.6758 -233.82 32.3141 -159.931 39.547C-1.13346 55.1158 143.261 12.8724 298.317 -9.90367C380.022 -21.9073 460.523 -33.8083 541.537 -50.1465C604.507 -62.8426 665.709 -69.4343 729.731 -60.2521C840.346 -44.4012 887.068 34.6994 944.426 120.879C967.389 155.377 994.992 198.21 1036.72 211.932C1116.68 238.247 1196.44 163.353 1251.03 117.878" stroke="url(#paint30_linear_139_6387)" stroke-miterlimit="10"/>
<path d="M-671.154 35.5971C-580.043 -41.9133 -474.861 -113.73 -350.33 -80.5146C-284.309 -62.8939 -231.026 -21.9073 -162.417 -13.238C-5.90053 6.51145 139.109 11 295.497 -10.8014C378.305 -22.3433 455.935 -39.3484 534.924 -66.7412C595.742 -87.8245 654.099 -105.112 719.3 -100.495C835.399 -92.2873 882.557 1.15087 934.968 91.896C957.291 130.549 984.253 180.281 1027.51 199.082C1109.02 234.503 1193 160.07 1251.08 113.979" stroke="url(#paint31_linear_139_6387)" stroke-miterlimit="10"/>
<path d="M-671.154 29.3644C-581.324 -48.8641 -476.553 -128.76 -350.535 -116.654C-282.874 -110.165 -220.954 -78.1549 -153.78 -68.2545C-0.236458 -45.6067 134.829 6.07539 292.55 -13.1868C375.998 -23.395 450.989 -45.1964 526.185 -82.4896C582.825 -110.575 636.8 -138.994 701.693 -139.814C827.839 -141.353 875.483 -31.0896 926.28 66.1703C948.219 108.183 974.591 162.84 1019.29 185.36C1102.22 227.167 1189.67 153.53 1251.03 106.67" stroke="url(#paint32_linear_139_6387)" stroke-miterlimit="10"/>
<path d="M-671.154 18.4637C-579.479 -62.3041 -474.426 -147.406 -347.177 -155.819C-278.568 -160.359 -206.345 -139.943 -139.582 -126.092C10.579 -94.9548 135.598 -0.23421 295.062 -17.4701C377.049 -26.3189 449.451 -53.0192 518.188 -98.0583C573.65 -134.403 624.472 -173.363 693.337 -177.39C822.226 -184.905 869.435 -56.8409 916.464 40.342C938.813 86.484 964.467 142.296 1010.55 169.611C1093.3 218.652 1188.72 141.167 1251.03 94.9994" stroke="url(#paint33_linear_139_6387)" stroke-miterlimit="10"/>
<path d="M-671.154 1.74079C-514.279 -136.147 -348.946 -242.46 -135.379 -190.804C16.6531 -154.024 133.752 -10.9809 298.701 -24.4722C382.277 -31.3204 452.68 -64.8945 516.266 -118.064C566.063 -159.692 610.427 -205.347 678.37 -212.708C807.951 -226.738 855.441 -95.5703 899.856 1.48433C924.101 54.4489 950.346 120.699 1002.96 152.247C1087.79 203.109 1186.31 124.957 1251 77.8661" stroke="url(#paint34_linear_139_6387)" stroke-miterlimit="10"/>
<path d="M-671.154 -20.984C-520.199 -150.048 -326.008 -292.809 -114.824 -233.612C33.4144 -192.061 145.414 -33.834 308.338 -42.1955C389.812 -46.3762 459.036 -85.4391 516.548 -140.789C562.168 -184.674 602.944 -234.176 670.041 -241.614C794.342 -255.439 844.933 -125.964 888.733 -33.9109C914.952 21.1568 942.426 88.5616 996.35 122.444C1082.69 176.691 1182.42 102.617 1251 54.8079" stroke="url(#paint35_linear_139_6387)" stroke-miterlimit="10"/>
<path d="M-671.154 -44.7347C-519.661 -168.31 -320.779 -304.761 -112.927 -253.515C39.8474 -215.863 160.868 -58.8415 326.278 -69.5883C401.243 -74.4615 464.06 -110.908 516.702 -162.308C558.708 -203.321 595.537 -250.052 656.867 -260.081C779.195 -280.087 839.628 -147.355 887.093 -59.3288C914.363 -8.80085 943.939 49.7551 993.428 82.3546C1079.98 139.372 1177.37 76.2502 1251.03 28.8001" stroke="url(#paint36_linear_139_6387)" stroke-miterlimit="10"/>
<path d="M-671.154 -68.4854C-516.79 -187.701 -308.221 -319.535 -101.907 -267.006C48.1 -228.815 176.502 -85.4905 338.375 -94.288C407.394 -98.0327 467.827 -134.839 516.087 -181.673C554.761 -219.197 589.181 -263.903 644.745 -275.676C765.15 -301.17 834.4 -167.412 886.837 -83.9002C918.361 -33.7057 951.32 21.5415 1005.45 49.9347C1091.1 94.8455 1176.29 45.2666 1251.03 0.868686" stroke="url(#paint37_linear_139_6387)" stroke-miterlimit="10"/>
<path d="M-671.154 -92.236C-511.844 -207.732 -298.2 -329.025 -92.091 -277.933C56.4807 -241.101 190.341 -108.395 349.729 -119.295C413.929 -123.681 468.801 -155.973 514.677 -199.14C553.249 -235.433 587.9 -279.677 643.002 -289.859C757.487 -311.045 832.068 -185.443 887.939 -107.625C920.001 -62.9709 953.985 -17.4188 1002.86 9.64058C1087.9 56.6803 1173.6 13.6161 1251.03 -28.6529" stroke="url(#paint38_linear_139_6387)" stroke-miterlimit="10"/>
<path d="M-671.154 -115.987C-510.742 -224.096 -303.762 -328.461 -102.625 -290.526C53.0463 -261.158 193.724 -130.966 357.212 -142.431C419.209 -146.791 472.005 -178.441 517.163 -219.12C554.095 -252.412 587.643 -290.783 638.824 -300.452C744.775 -320.484 823.661 -212.298 881.89 -141.61C920.001 -95.3139 961.648 -44.5038 1018.67 -20.8301C1099.3 12.6415 1178.68 -23.1128 1251.05 -59.3801" stroke="url(#paint39_linear_139_6387)" stroke-miterlimit="10"/>
</g>
<defs>
<linearGradient id="paint0_linear_139_6387" x1="289.923" y1="609.685" x2="289.923" y2="833.813" gradientUnits="userSpaceOnUse">
<stop stop-color="#333333"/>
<stop offset="1" stop-color="#333333" stop-opacity="0"/>
</linearGradient>
<linearGradient id="paint1_linear_139_6387" x1="289.936" y1="567.861" x2="289.936" y2="821.655" gradientUnits="userSpaceOnUse">
<stop stop-color="#333333"/>
<stop offset="1" stop-color="#333333" stop-opacity="0"/>
</linearGradient>
<linearGradient id="paint2_linear_139_6387" x1="289.936" y1="526.197" x2="289.936" y2="810.293" gradientUnits="userSpaceOnUse">
<stop stop-color="#333333"/>
<stop offset="1" stop-color="#333333" stop-opacity="0"/>
</linearGradient>
<linearGradient id="paint3_linear_139_6387" x1="289.936" y1="485.397" x2="289.936" y2="799.325" gradientUnits="userSpaceOnUse">
<stop stop-color="#333333"/>
<stop offset="1" stop-color="#333333" stop-opacity="0"/>
</linearGradient>
<linearGradient id="paint4_linear_139_6387" x1="289.923" y1="448.147" x2="289.923" y2="787.924" gradientUnits="userSpaceOnUse">
<stop stop-color="#333333"/>
<stop offset="1" stop-color="#333333" stop-opacity="0"/>
</linearGradient>
<linearGradient id="paint5_linear_139_6387" x1="289.936" y1="412.476" x2="289.936" y2="776.208" gradientUnits="userSpaceOnUse">
<stop stop-color="#333333"/>
<stop offset="1" stop-color="#333333" stop-opacity="0"/>
</linearGradient>
<linearGradient id="paint6_linear_139_6387" x1="289.936" y1="378.304" x2="289.936" y2="763.902" gradientUnits="userSpaceOnUse">
<stop stop-color="#333333"/>
<stop offset="1" stop-color="#333333" stop-opacity="0"/>
</linearGradient>
<linearGradient id="paint7_linear_139_6387" x1="289.949" y1="344.449" x2="289.949" y2="750.387" gradientUnits="userSpaceOnUse">
<stop stop-color="#333333"/>
<stop offset="1" stop-color="#333333" stop-opacity="0"/>
</linearGradient>
<linearGradient id="paint8_linear_139_6387" x1="289.936" y1="320.805" x2="289.936" y2="724.968" gradientUnits="userSpaceOnUse">
<stop stop-color="#333333"/>
<stop offset="1" stop-color="#333333" stop-opacity="0"/>
</linearGradient>
<linearGradient id="paint9_linear_139_6387" x1="289.949" y1="304.878" x2="289.949" y2="691.95" gradientUnits="userSpaceOnUse">
<stop stop-color="#333333"/>
<stop offset="1" stop-color="#333333" stop-opacity="0"/>
</linearGradient>
<linearGradient id="paint10_linear_139_6387" x1="289.949" y1="289.077" x2="289.949" y2="662.564" gradientUnits="userSpaceOnUse">
<stop stop-color="#333333"/>
<stop offset="1" stop-color="#333333" stop-opacity="0"/>
</linearGradient>
<linearGradient id="paint11_linear_139_6387" x1="289.923" y1="270.648" x2="289.923" y2="636.719" gradientUnits="userSpaceOnUse">
<stop stop-color="#333333"/>
<stop offset="1" stop-color="#333333" stop-opacity="0"/>
</linearGradient>
<linearGradient id="paint12_linear_139_6387" x1="289.936" y1="252.525" x2="289.936" y2="614.442" gradientUnits="userSpaceOnUse">
<stop stop-color="#333333"/>
<stop offset="1" stop-color="#333333" stop-opacity="0"/>
</linearGradient>
<linearGradient id="paint13_linear_139_6387" x1="289.949" y1="232.068" x2="289.949" y2="594.652" gradientUnits="userSpaceOnUse">
<stop stop-color="#333333"/>
<stop offset="1" stop-color="#333333" stop-opacity="0"/>
</linearGradient>
<linearGradient id="paint14_linear_139_6387" x1="289.949" y1="211.196" x2="289.949" y2="578.625" gradientUnits="userSpaceOnUse">
<stop stop-color="#333333"/>
<stop offset="1" stop-color="#333333" stop-opacity="0"/>
</linearGradient>
<linearGradient id="paint15_linear_139_6387" x1="289.949" y1="188.938" x2="289.949" y2="564.007" gradientUnits="userSpaceOnUse">
<stop stop-color="#333333"/>
<stop offset="1" stop-color="#333333" stop-opacity="0"/>
</linearGradient>
<linearGradient id="paint16_linear_139_6387" x1="289.949" y1="163.793" x2="289.949" y2="549.063" gradientUnits="userSpaceOnUse">
<stop stop-color="#333333"/>
<stop offset="1" stop-color="#333333" stop-opacity="0"/>
</linearGradient>
<linearGradient id="paint17_linear_139_6387" x1="289.936" y1="136.893" x2="289.936" y2="531.385" gradientUnits="userSpaceOnUse">
<stop stop-color="#333333"/>
<stop offset="1" stop-color="#333333" stop-opacity="0"/>
</linearGradient>
<linearGradient id="paint18_linear_139_6387" x1="289.949" y1="111.284" x2="289.949" y2="507.644" gradientUnits="userSpaceOnUse">
<stop stop-color="#333333"/>
<stop offset="1" stop-color="#333333" stop-opacity="0"/>
</linearGradient>
<linearGradient id="paint19_linear_139_6387" x1="289.923" y1="85.7697" x2="289.923" y2="476.705" gradientUnits="userSpaceOnUse">
<stop stop-color="#333333"/>
<stop offset="1" stop-color="#333333" stop-opacity="0"/>
</linearGradient>
<linearGradient id="paint20_linear_139_6387" x1="289.936" y1="53.4558" x2="289.936" y2="435.516" gradientUnits="userSpaceOnUse">
<stop stop-color="#333333"/>
<stop offset="1" stop-color="#333333" stop-opacity="0"/>
</linearGradient>
<linearGradient id="paint21_linear_139_6387" x1="289.936" y1="16.891" x2="289.936" y2="380.749" gradientUnits="userSpaceOnUse">
<stop stop-color="#333333"/>
<stop offset="1" stop-color="#333333" stop-opacity="0"/>
</linearGradient>
<linearGradient id="paint22_linear_139_6387" x1="289.936" y1="-0.00415039" x2="289.936" y2="353.703" gradientUnits="userSpaceOnUse">
<stop stop-color="#333333"/>
<stop offset="1" stop-color="#333333" stop-opacity="0"/>
</linearGradient>
<linearGradient id="paint23_linear_139_6387" x1="289.923" y1="-12.5078" x2="289.923" y2="324.225" gradientUnits="userSpaceOnUse">
<stop stop-color="#333333"/>
<stop offset="1" stop-color="#333333" stop-opacity="0"/>
</linearGradient>
<linearGradient id="paint24_linear_139_6387" x1="289.936" y1="-21.5321" x2="289.936" y2="294.291" gradientUnits="userSpaceOnUse">
<stop stop-color="#333333"/>
<stop offset="1" stop-color="#333333" stop-opacity="0"/>
</linearGradient>
<linearGradient id="paint25_linear_139_6387" x1="289.923" y1="-28.3035" x2="289.923" y2="272.522" gradientUnits="userSpaceOnUse">
<stop stop-color="#333333"/>
<stop offset="1" stop-color="#333333" stop-opacity="0"/>
</linearGradient>
<linearGradient id="paint26_linear_139_6387" x1="289.949" y1="-27.7795" x2="289.949" y2="254.632" gradientUnits="userSpaceOnUse">
<stop stop-color="#333333"/>
<stop offset="1" stop-color="#333333" stop-opacity="0"/>
</linearGradient>
<linearGradient id="paint27_linear_139_6387" x1="289.936" y1="-33.9849" x2="289.936" y2="240.086" gradientUnits="userSpaceOnUse">
<stop stop-color="#333333"/>
<stop offset="1" stop-color="#333333" stop-opacity="0"/>
</linearGradient>
<linearGradient id="paint28_linear_139_6387" x1="289.936" y1="-41.8901" x2="289.936" y2="234.873" gradientUnits="userSpaceOnUse">
<stop stop-color="#333333"/>
<stop offset="1" stop-color="#333333" stop-opacity="0"/>
</linearGradient>
<linearGradient id="paint29_linear_139_6387" x1="289.923" y1="-52.7192" x2="289.923" y2="226.088" gradientUnits="userSpaceOnUse">
<stop stop-color="#333333"/>
<stop offset="1" stop-color="#333333" stop-opacity="0"/>
</linearGradient>
<linearGradient id="paint30_linear_139_6387" x1="289.936" y1="-67.4927" x2="289.936" y2="217.394" gradientUnits="userSpaceOnUse">
<stop stop-color="#333333"/>
<stop offset="1" stop-color="#333333" stop-opacity="0"/>
</linearGradient>
<linearGradient id="paint31_linear_139_6387" x1="289.961" y1="-101.247" x2="289.961" y2="208.338" gradientUnits="userSpaceOnUse">
<stop stop-color="#333333"/>
<stop offset="1" stop-color="#333333" stop-opacity="0"/>
</linearGradient>
<linearGradient id="paint32_linear_139_6387" x1="289.936" y1="-139.83" x2="289.936" y2="197.744" gradientUnits="userSpaceOnUse">
<stop stop-color="#333333"/>
<stop offset="1" stop-color="#333333" stop-opacity="0"/>
</linearGradient>
<linearGradient id="paint33_linear_139_6387" x1="289.936" y1="-177.706" x2="289.936" y2="185.296" gradientUnits="userSpaceOnUse">
<stop stop-color="#333333"/>
<stop offset="1" stop-color="#333333" stop-opacity="0"/>
</linearGradient>
<linearGradient id="paint34_linear_139_6387" x1="289.923" y1="-213.746" x2="289.923" y2="168.815" gradientUnits="userSpaceOnUse">
<stop stop-color="#333333"/>
<stop offset="1" stop-color="#333333" stop-opacity="0"/>
</linearGradient>
<linearGradient id="paint35_linear_139_6387" x1="289.923" y1="-247.399" x2="289.923" y2="141.485" gradientUnits="userSpaceOnUse">
<stop stop-color="#333333"/>
<stop offset="1" stop-color="#333333" stop-opacity="0"/>
</linearGradient>
<linearGradient id="paint36_linear_139_6387" x1="289.936" y1="-264.585" x2="289.936" y2="104.975" gradientUnits="userSpaceOnUse">
<stop stop-color="#333333"/>
<stop offset="1" stop-color="#333333" stop-opacity="0"/>
</linearGradient>
<linearGradient id="paint37_linear_139_6387" x1="289.936" y1="-278.878" x2="289.936" y2="67.6241" gradientUnits="userSpaceOnUse">
<stop stop-color="#333333"/>
<stop offset="1" stop-color="#333333" stop-opacity="0"/>
</linearGradient>
<linearGradient id="paint38_linear_139_6387" x1="289.936" y1="-292.231" x2="289.936" y2="30.1187" gradientUnits="userSpaceOnUse">
<stop stop-color="#333333"/>
<stop offset="1" stop-color="#333333" stop-opacity="0"/>
</linearGradient>
<linearGradient id="paint39_linear_139_6387" x1="289.949" y1="-302.885" x2="289.949" y2="-7.4874" gradientUnits="userSpaceOnUse">
<stop stop-color="#333333"/>
<stop offset="1" stop-color="#333333" stop-opacity="0"/>
</linearGradient>
<clipPath id="clip0_139_6387">
<rect width="1924" height="1286" fill="white" transform="translate(-672 -332)"/>
</clipPath>
</defs>
</svg>
