<svg xmlns="http://www.w3.org/2000/svg" width="690" height="622" fill="none"><g stroke-miterlimit="10" clip-path="url(#a)"><path stroke="url(#b)" d="M-671.154 765.072c190.706-45.322 365.624-7.49 550.41 42.859 85.806 23.366 171.56 37.498 258.93 13.26 46.235-12.824 89.266-33.959 130.58-58.043 64.739-37.729 120.585-97.875 185.76-132.091C625.702 541.21 727.219 761.506 875.15 796.594c69.532 16.492 110.256-21.314 172.18-40.833 74.94-23.622 141.55 15.62 203.67 54.478"/><path stroke="url(#c)" d="M-671.154 729.471c182.12-50.22 336.791-.615 509.378 56.171 85.6 28.162 170.971 49.245 260.186 26.162 135.731-35.113 224.203-141.966 338.278-213.962 185.247-116.881 267.798 143.402 429.415 176.54 69.967 14.363 109.539-30.291 171.377-51.862 78.33-27.315 150.63 21.879 213.55 63.917"/><path stroke="url(#d)" d="M-671.154 694.05c176.712-57.119 312.392 7.079 474.676 70.714 87.626 34.343 176.25 62.198 269.618 33.805 138.422-42.09 228.637-156.739 343.07-236.481 194.551-135.553 258.418 154.097 425.52 188.159 71.12 14.491 115.023-35.062 175.92-59.249 86.01-34.164 164.97 23.982 233.38 71.765"/><path stroke="url(#e)" d="M-671.154 659.271c79.168-30.189 156.44-37.14 238.324-12.773 75.606 22.494 140.525 67.917 211.876 100.055 84.268 37.96 170.843 71.252 263.057 41.012 146.47-48.04 234.634-178.489 354.168-265.027 193.551-140.145 249.858 158.585 408.758 198.879 80.45 20.391 127.069-38.729 195.471-65.763 92.45-36.549 178.82 31.676 250.53 83.359"/><path stroke="url(#f)" d="M-671.154 625.697c71.249-32.292 142.241-42.346 217.488-17.108 74.119 24.854 134.322 77.177 202.598 113.393 79.424 42.141 161.155 84.435 252.549 57.453 153.236-45.193 249.422-191.698 368.341-286.496C572.599 331.275 606.25 656.372 772.377 693.794c85.243 19.211 138.32-49.348 211.517-76.074 98.466-35.934 192.906 42.577 267.106 97.516"/><path stroke="url(#g)" d="M-671.154 593.815C-506.488 505.327-407.585 610-273.468 694.589c76.17 48.04 158.183 103.621 251.524 72.688 151.16-50.092 250.601-200.701 365.188-300.859 73.966-64.634 144.779-79.639 208.134 2.129 54.949 70.893 90.24 173 188.015 193.545 85.14 17.877 145.265-52.298 218.308-80.896 107.489-42.115 213.899 49.964 293.329 110.315"/><path stroke="url(#h)" d="M-671.154 564.165c159.489-100.312 258.879 3.848 384.666 98.389 67.097 50.425 143.062 120.267 233.712 96.593 55.18-14.415 104.105-55.376 146.24-91.54 80.987-69.483 148.212-151.456 225.1-224.863 73.709-70.38 146.367-98.08 209.569-5.232 47.106 69.2 83.243 176.104 177.942 191.211 90.035 14.363 155.927-62.942 234.89-89.668 113.895-38.575 228.715 65.097 310.065 128.654"/><path stroke="url(#i)" d="M-671.154 537.286c62.176-44.757 130.785-72.843 206.544-45.578 67.456 24.289 119.893 80.716 171.741 127.73 58.434 52.99 132.246 147.07 221.948 128.577 50.489-10.413 94.904-49.091 132.63-82.024 83.269-72.714 156.26-156.945 231.123-237.969 70.07-75.869 147.726-130.449 213.08-24.854 44.005 71.073 78.169 183.491 177.968 187.441 88.574 3.514 155.133-67.276 234.967-93.387 122.453-40.037 246.683 77.639 332.203 146.762"/><path stroke="url(#j)" d="M-671.154 512.611c63.816-49.758 134.911-82.793 215.515-54.118 68.019 24.186 124.352 79.331 174.636 128.91 52.283 51.58 122.456 152.892 208.057 135.605 47.9-9.67 90.035-48.425 125.352-79.87 80.757-71.945 152.877-153.969 225.843-233.557 66.815-72.868 145.291-139.298 211.568-34.19 43.364 68.764 76.298 178.515 174.226 179.874 87.806 1.206 161.028-62.583 243.015-84.435 127.612-34.036 252.322 77.536 343.972 148.813"/><path stroke="url(#k)" d="M-671.154 485.116c70.403-55.427 145.522-85.231 231.584-46.757 71.172 31.83 133.502 92.053 188.579 145.376 49.413 47.861 110.64 128.629 188.553 103.467 47.542-15.363 88.881-56.401 124.352-89.386 71.095-66.096 137.167-137.682 204.238-207.805 63.919-66.866 141.473-131.911 210.184-38.678 48.875 66.327 79.988 172.41 177.558 177.258 86.908 4.309 170.946-53.068 254.727-68.457 126.709-23.289 244.549 64.122 342.429 131.475"/><path stroke="url(#l)" d="M-671.154 454.569c75.708-57.813 152.851-83.23 241.297-37.576 67.764 34.959 130.299 91.258 186.042 142.633 51.95 47.886 115.741 130.398 194.243 93.874 40.98-19.057 74.708-55.35 106.898-86.052 67.712-64.634 131.759-133.168 197.882-199.392 68.404-68.508 145.907-121.627 216.874-30.548 48.849 62.711 84.037 161.433 176.661 165.537 85.216 3.796 169.869-37.063 253.036-50.657 128.371-20.98 242.351 44.527 349.271 107.648"/><path stroke="url(#m)" d="M-671.154 421.533c87.318-63.044 170.612-77.305 263.595-18.647 66.815 42.141 128.581 99.235 188.373 150.712 49.926 42.987 106.079 110.469 175.944 71.38 37.418-20.929 68.558-58.248 98.364-88.436 63.458-64.301 125.25-130.167 190.552-192.622 67.661-64.712 145.112-111.418 217.13-29.65 53.77 61.044 91.009 158.407 183.402 167.23 81.423 7.771 170.151-24.084 250.242-36.498 127.992-19.827 240.602 25.443 354.552 80.716"/><path stroke="url(#n)" d="M-671.154 386.625c94.597-63.686 181.582-70.508 276.384-3.873 71.53 50.272 135.808 113.803 203.828 168.897 46.773 37.857 98.518 89.77 156.978 46.27C4.684 569.167 36.234 525.846 68.32 490.554c54.257-59.634 109.872-118.472 169.562-172.693 73.146-66.456 152.468-97.85 226.126-17.749 53.923 58.633 95.237 150.147 183.837 160.074 83.858 9.387 174.534-12.645 257.598-24.059 122.146-16.774 230.866 10.542 345.586 53.042"/><path stroke="url(#o)" d="M-671.154 350.384c107.847-67.482 199.522-60.301 298.527 18.8 75.119 60.018 139.14 129.859 217.437 186.492 53.719 38.832 92.444 60.761 141.473 6.643 83.32-91.977 150.801-196.803 248.422-276.108 71.659-58.197 150.494-79.896 221.897-12.158 60.33 57.222 100.927 145.069 188.014 165.691 80.399 19.005 181.301.256 262.135-10.773 119.299-16.287 226.969-6.72 344.299 22.212"/><path stroke="url(#p)" d="M-671.154 313.424c120.764-70.509 219.103-47.604 320.927 42.653 72.94 64.661 133.604 139.529 216.386 192.648 60.767 39.012 92.752 45.911 134.322-16.21 65.867-98.414 132.169-199.008 228.124-271.594 77.58-58.71 156.184-71.893 231.995-4.207 63.124 56.376 108.052 147.07 197.318 167.025 79.168 17.697 171.561 9.285 251.37-1.59 115.872-15.8 224.712-22.93 341.762-9.875"/><path stroke="url(#q)" d="M-671.154 276.336c131.631-72.714 234.608-36.883 338.944 62.608 73.838 70.406 134.707 156.406 225.613 206.318 67.481 37.063 91.163 17.801 123.353-45.731 51.207-101.03 115.971-203.138 210.824-268.953 80.296-55.734 161.515-57.453 236.941 6.592 65.79 55.889 113.716 144.223 201.855 168.999 189.04 53.145 394.764-26.289 584.674-32.881"/><path stroke="url(#r)" d="M-671.154 239.684c65.482-34.908 127.043-55.632 200.317-30.214 60.612 21.032 110.256 65.173 154.722 110.135 73.351 74.227 136.065 174.103 233.789 218.219 73.299 33.087 90.65-11.49 115.382-73.688C73.37 362.669 134.239 258.715 229.349 199.313c207.288-129.5 282.099 132.527 447.022 189.338 192.602 66.354 386.329-17.364 574.679-53.862"/><path stroke="url(#s)" d="M-671.154 204.058c68.301-36.165 131.246-56.325 205.852-28.855 62.587 23.032 113.178 70.098 158.516 117.779 71.3 74.971 145.035 204.753 251.396 234.608 74.452 20.904 86.19-48.809 105.053-104.928 33.01-98.235 89.907-206.549 185.094-258.514C432.357 56.27 531.874 298.83 681.061 367.389c195.729 89.95 385.259-2.283 569.969-69.944"/><path stroke="url(#t)" d="M-671.154 170.073c68.968-37.55 131.092-57.94 207.006-31.343 62.945 22.058 114.382 71.278 159.131 119.241 72.607 77.844 150.442 225.709 263.338 247.767 76.734 15.004 87.498-61.711 104.26-119.318 28.78-98.825 80.603-208.216 180.069-254.179 197.882-91.437 304.602 141.427 450.559 216.732 75.99 39.191 174.38 59.274 259.033 45.629 107.308-17.287 205.438-80.922 298.808-132.553"/><path stroke="url(#u)" d="M-671.154 138.269c73.453-42.5 144.445-66.994 225.766-30.266 61.023 27.573 109.436 78.255 153.185 127.449 65.559 73.714 148.187 229.017 258.47 240.662 83.012 8.771 93.494-81.948 111.28-143.197 27.501-94.67 77.016-196.161 176.688-232.685C450.63 28.236 564.192 244.121 705.896 328.48c71.607 42.628 165.205 71.816 248.96 61.377C1067.06 375.853 1164.17 294.598 1251 229.065"/><path stroke="url(#v)" d="M-671.154 109.26c69.352-44.218 137.628-74.997 219.564-41.884 65.662 26.546 117.945 82.896 163.052 135.553 64.483 75.279 145.573 229.838 260.135 232.557 81.68 1.924 96.801-90.104 116.074-151.558 29.807-94.952 76.939-187.056 181.48-213.91 200.188-51.452 311.342 145.941 454.583 240.636 70.121 46.372 163.641 84.615 249.063 72.278 111.713-16.159 201.473-109.084 278.233-183.619"/><path stroke="url(#w)" d="M-671.154 83.637c63.662-46.193 129.785-84.897 210.748-57.76 63.098 21.134 112.793 72.893 155.26 121.984 69.558 80.383 139.525 223.375 259.264 232.506 91.035 6.925 114.69-81.614 140.883-151.661 35.727-95.567 85.524-176.489 194.935-191.288C483.897 11.18 595.665 178.076 730.423 283.133c67.558 52.656 159.028 103.082 247.423 94.464 117.254-11.44 203.544-120.549 273.184-204.189"/><path stroke="url(#x)" d="M-671.154 63.426c63.355-44.244 128.683-80.665 208.031-54.811 61.792 20.134 110.974 69.61 152.929 117.214 67.583 76.638 139.114 223.759 255.419 227.786 89.932 3.104 120.713-76.612 152.954-146.685 41.34-89.796 97.288-172 203.393-186.337C488.741-4.697 605.66 151.22 738.496 250.943c65.175 48.913 157.106 98.671 240.811 97.029 117.023-2.308 203.703-113.7 271.723-195.007"/><path stroke="url(#y)" d="M-671.154 49.601c62.355-42.705 126.735-78.126 204.52-54.58 60.1 18.185 108.564 64.506 149.853 109.853 66.507 73.073 137.73 218.655 250.268 219.348 88.24.538 125.813-69.739 164.333-138.195 47.055-83.615 108.821-163.844 211.158-177.9 180.403-24.75 302.269 115.086 435.182 208.165 64.534 45.193 155.466 95.618 235.326 102.749C1095.92 329.428 1184.01 216.933 1251 138.551"/><path stroke="url(#z)" d="M-671.154 41.035c59.818-40.91 123.762-76.28 198.471-57.3 63.688 16.159 114.28 64.353 157.645 111.008 65.918 70.919 132.015 202.65 242.143 197.751 83.32-3.693 125.788-66.994 169.306-129.295C149.847 86.664 214.356 14.899 312.208.997c177.686-25.264 302.166 95.618 440.409 181.849 63.868 39.858 144.907 87.129 218.488 106.186 119.275 30.881 210.105-80.973 279.925-159.971"/><path stroke="url(#A)" d="M-671.154 36.623c58.178-40.294 120.764-76.433 194.242-61.48 61.177 12.465 110.897 55.35 153.519 98.414 66.84 67.507 129.068 188.749 235.761 184.004C-6.695 253.97 41.975 200.672 91.49 143.245 150.821 74.455 219.302 9.102 313.386-4.595 483.564-29.37 613.964 67.274 753.822 144.169c69.404 38.165 142.395 84.82 215.259 115.701C1086.38 309.602 1178.6 201.98 1251 123.47"/><path stroke="url(#B)" d="M-671.154 35.264c122.404-86.847 228.278-86.41 339.431 16.569 68.25 63.224 126.249 171.743 229.201 168.05 78.297-2.821 132.733-46.014 187.912-96.721C150.411 63.426 222.044 5.639 312.387-7.8c162.155-24.136 299.45 45.757 440.564 112.059 77.681 36.498 140.524 82.281 212.875 126.679 114.254 70.097 207.514-29.984 285.224-110.136"/><path stroke="url(#C)" d="M-671.154 35.854c113.921-83.513 218.769-99.723 331.589-6.772 70.044 57.71 123.993 152.251 222.768 150.302C47.664 176.152 148.95 14.95 309.696-9.366 463.675-32.653 608.326 8.64 749.952 63.35c86.575 33.446 141.088 80.819 211.312 138.605 110.156 90.643 203.776 1.975 289.766-82.075"/><path stroke="url(#D)" d="M-671.154 37.29c104.182-79.46 208.21-113.11 322.003-34.395 70.352 48.656 121.943 129.962 212.85 133.091C27.161 141.654 148.797 13.514 305.672-10.981c143.139-22.34 296.118-9.952 434.208 31.497 98.313 29.521 148.52 83.204 217.821 154.866 25.886 26.778 54.999 54.658 93.879 58.864 77.35 8.336 149.7-68.379 199.45-114.444"/><path stroke="url(#E)" d="M-671.154 38.47c96.929-76.895 200.47-125.756 316.801-61.378 71.966 39.833 122.02 107.443 207.851 112.444 159.695 9.31 294.222-76.33 447.843-100.21 137.807-21.416 293.965-39.267 431.593-9.72C838.808 2.33 886.427 65.708 950.602 146.707c24.578 31.035 52.408 66.738 93.038 76.485 78.47 18.826 155.9-58.556 207.36-103.673"/><path stroke="url(#F)" d="M-671.154 38.265c94.597-77.973 199.727-138.324 321.516-86.308 66.405 28.367 115.818 80.357 189.707 87.59C-1.133 55.116 143.261 12.872 298.317-9.903c81.705-12.004 162.206-23.905 243.22-40.244 62.97-12.696 124.172-19.287 188.194-10.105 110.615 15.85 157.337 94.951 214.695 181.131 22.963 34.498 50.566 77.331 92.294 91.053 79.96 26.315 159.72-48.579 214.31-94.054"/><path stroke="url(#G)" d="M-671.154 35.597c91.111-77.51 196.293-149.327 320.824-116.112 66.021 17.621 119.304 58.608 187.913 67.277C-5.901 6.512 139.109 11 295.497-10.801c82.808-11.542 160.438-28.547 239.427-55.94 60.818-21.083 119.175-38.371 184.376-33.754C835.399-92.287 882.557 1.151 934.968 91.896c22.323 38.653 49.285 88.385 92.542 107.186 81.51 35.421 165.49-39.012 223.57-85.103"/><path stroke="url(#H)" d="M-671.154 29.364c89.83-78.228 194.601-158.124 320.619-146.018 67.661 6.489 129.581 38.5 196.755 48.4C-.236-45.607 134.829 6.076 292.55-13.187c83.448-10.208 158.439-32.01 233.635-69.303 56.64-28.085 110.615-56.504 175.508-57.324C827.839-141.353 875.483-31.09 926.28 66.17c21.939 42.013 48.311 96.67 93.01 119.19 82.93 41.807 170.38-31.83 231.74-78.69"/><path stroke="url(#I)" d="M-671.154 18.464c91.675-80.768 196.728-165.87 323.977-174.283 68.609-4.54 140.832 15.876 207.595 29.727C10.579-94.955 135.598-.234 295.062-17.47c81.987-8.849 154.389-35.55 223.126-80.588 55.462-36.345 106.284-75.305 175.149-79.332 128.889-7.515 176.098 120.55 223.127 217.732 22.349 46.142 48.003 101.954 94.086 129.269 82.75 49.041 178.17-28.444 240.48-74.612"/><path stroke="url(#J)" d="M-671.154 1.74c156.875-137.887 322.208-244.2 535.775-192.544 152.032 36.78 269.131 179.823 434.08 166.332 83.576-6.848 153.979-40.422 217.565-93.592 49.797-41.628 94.161-87.283 162.104-94.644C807.951-226.738 855.441-95.57 899.856 1.484c24.245 52.965 50.49 119.215 103.104 150.763 84.83 50.862 183.35-27.29 248.04-74.38"/><path stroke="url(#K)" d="M-671.154-20.984c150.955-129.064 345.146-271.825 556.33-212.628C33.414-192.061 145.414-33.834 308.338-42.196c81.474-4.18 150.698-43.243 208.21-98.593 45.62-43.885 86.396-93.387 153.493-100.825 124.301-13.825 174.892 115.65 218.692 207.703 26.219 55.068 53.693 122.473 107.617 156.355 86.34 54.247 186.07-19.827 254.65-67.636"/><path stroke="url(#L)" d="M-671.154-44.735c151.493-123.575 350.375-260.026 558.227-208.78C39.847-215.863 160.868-58.841 326.278-69.588c74.965-4.874 137.782-41.32 190.424-92.72 42.006-41.013 78.835-87.744 140.165-97.773 122.328-20.006 182.761 112.726 230.226 200.752C914.363-8.8 943.939 49.755 993.428 82.355c86.552 57.017 183.942-6.105 257.602-53.555"/><path stroke="url(#M)" d="M-671.154-68.485c154.364-119.216 362.933-251.05 569.247-198.521C48.1-228.815 176.502-85.491 338.375-94.288c69.019-3.745 129.452-40.551 177.712-87.385 38.674-37.524 73.094-82.23 128.658-94.003C765.15-301.17 834.4-167.412 886.837-83.9 918.361-33.706 951.32 21.542 1005.45 49.935c85.65 44.91 170.84-4.668 245.58-49.066"/><path stroke="url(#N)" d="M-671.154-92.236C-511.844-207.732-298.2-329.025-92.091-277.933c148.572 36.832 282.432 169.538 441.82 158.638 64.2-4.386 119.072-36.678 164.948-79.845 38.572-36.293 73.223-80.537 128.325-90.719 114.485-21.186 189.066 104.416 244.937 182.234 32.062 44.654 66.046 90.206 114.921 117.266 85.04 47.04 170.74 3.975 248.17-38.294"/><path stroke="url(#O)" d="M-671.154-115.987c160.412-108.109 367.392-212.474 568.529-174.539 155.671 29.368 296.349 159.56 459.837 148.095 61.997-4.36 114.793-36.01 159.951-76.689 36.932-33.292 70.48-71.663 121.661-81.332 105.951-20.032 184.837 88.154 243.066 158.842 38.111 46.296 79.758 97.106 136.78 120.78 80.63 33.472 160.01-2.283 232.38-38.55"/></g><defs><linearGradient id="b" x1="289.923" x2="289.923" y1="609.685" y2="833.813" gradientUnits="userSpaceOnUse"><stop stop-color="#333"/><stop offset="1" stop-color="#333" stop-opacity="0"/></linearGradient><linearGradient id="c" x1="289.936" x2="289.936" y1="567.861" y2="821.655" gradientUnits="userSpaceOnUse"><stop stop-color="#333"/><stop offset="1" stop-color="#333" stop-opacity="0"/></linearGradient><linearGradient id="d" x1="289.936" x2="289.936" y1="526.197" y2="810.293" gradientUnits="userSpaceOnUse"><stop stop-color="#333"/><stop offset="1" stop-color="#333" stop-opacity="0"/></linearGradient><linearGradient id="e" x1="289.936" x2="289.936" y1="485.397" y2="799.325" gradientUnits="userSpaceOnUse"><stop stop-color="#333"/><stop offset="1" stop-color="#333" stop-opacity="0"/></linearGradient><linearGradient id="f" x1="289.923" x2="289.923" y1="448.147" y2="787.924" gradientUnits="userSpaceOnUse"><stop stop-color="#333"/><stop offset="1" stop-color="#333" stop-opacity="0"/></linearGradient><linearGradient id="g" x1="289.936" x2="289.936" y1="412.476" y2="776.208" gradientUnits="userSpaceOnUse"><stop stop-color="#333"/><stop offset="1" stop-color="#333" stop-opacity="0"/></linearGradient><linearGradient id="h" x1="289.936" x2="289.936" y1="378.304" y2="763.902" gradientUnits="userSpaceOnUse"><stop stop-color="#333"/><stop offset="1" stop-color="#333" stop-opacity="0"/></linearGradient><linearGradient id="i" x1="289.949" x2="289.949" y1="344.449" y2="750.387" gradientUnits="userSpaceOnUse"><stop stop-color="#333"/><stop offset="1" stop-color="#333" stop-opacity="0"/></linearGradient><linearGradient id="j" x1="289.936" x2="289.936" y1="320.805" y2="724.968" gradientUnits="userSpaceOnUse"><stop stop-color="#333"/><stop offset="1" stop-color="#333" stop-opacity="0"/></linearGradient><linearGradient id="k" x1="289.949" x2="289.949" y1="304.878" y2="691.95" gradientUnits="userSpaceOnUse"><stop stop-color="#333"/><stop offset="1" stop-color="#333" stop-opacity="0"/></linearGradient><linearGradient id="l" x1="289.949" x2="289.949" y1="289.077" y2="662.564" gradientUnits="userSpaceOnUse"><stop stop-color="#333"/><stop offset="1" stop-color="#333" stop-opacity="0"/></linearGradient><linearGradient id="m" x1="289.923" x2="289.923" y1="270.648" y2="636.719" gradientUnits="userSpaceOnUse"><stop stop-color="#333"/><stop offset="1" stop-color="#333" stop-opacity="0"/></linearGradient><linearGradient id="n" x1="289.936" x2="289.936" y1="252.525" y2="614.442" gradientUnits="userSpaceOnUse"><stop stop-color="#333"/><stop offset="1" stop-color="#333" stop-opacity="0"/></linearGradient><linearGradient id="o" x1="289.949" x2="289.949" y1="232.068" y2="594.652" gradientUnits="userSpaceOnUse"><stop stop-color="#333"/><stop offset="1" stop-color="#333" stop-opacity="0"/></linearGradient><linearGradient id="p" x1="289.949" x2="289.949" y1="211.196" y2="578.625" gradientUnits="userSpaceOnUse"><stop stop-color="#333"/><stop offset="1" stop-color="#333" stop-opacity="0"/></linearGradient><linearGradient id="q" x1="289.949" x2="289.949" y1="188.938" y2="564.007" gradientUnits="userSpaceOnUse"><stop stop-color="#333"/><stop offset="1" stop-color="#333" stop-opacity="0"/></linearGradient><linearGradient id="r" x1="289.949" x2="289.949" y1="163.793" y2="549.063" gradientUnits="userSpaceOnUse"><stop stop-color="#333"/><stop offset="1" stop-color="#333" stop-opacity="0"/></linearGradient><linearGradient id="s" x1="289.936" x2="289.936" y1="136.893" y2="531.385" gradientUnits="userSpaceOnUse"><stop stop-color="#333"/><stop offset="1" stop-color="#333" stop-opacity="0"/></linearGradient><linearGradient id="t" x1="289.949" x2="289.949" y1="111.284" y2="507.644" gradientUnits="userSpaceOnUse"><stop stop-color="#333"/><stop offset="1" stop-color="#333" stop-opacity="0"/></linearGradient><linearGradient id="u" x1="289.923" x2="289.923" y1="85.77" y2="476.705" gradientUnits="userSpaceOnUse"><stop stop-color="#333"/><stop offset="1" stop-color="#333" stop-opacity="0"/></linearGradient><linearGradient id="v" x1="289.936" x2="289.936" y1="53.456" y2="435.516" gradientUnits="userSpaceOnUse"><stop stop-color="#333"/><stop offset="1" stop-color="#333" stop-opacity="0"/></linearGradient><linearGradient id="w" x1="289.936" x2="289.936" y1="16.891" y2="380.749" gradientUnits="userSpaceOnUse"><stop stop-color="#333"/><stop offset="1" stop-color="#333" stop-opacity="0"/></linearGradient><linearGradient id="x" x1="289.936" x2="289.936" y1="-.004" y2="353.703" gradientUnits="userSpaceOnUse"><stop stop-color="#333"/><stop offset="1" stop-color="#333" stop-opacity="0"/></linearGradient><linearGradient id="y" x1="289.923" x2="289.923" y1="-12.508" y2="324.225" gradientUnits="userSpaceOnUse"><stop stop-color="#333"/><stop offset="1" stop-color="#333" stop-opacity="0"/></linearGradient><linearGradient id="z" x1="289.936" x2="289.936" y1="-21.532" y2="294.291" gradientUnits="userSpaceOnUse"><stop stop-color="#333"/><stop offset="1" stop-color="#333" stop-opacity="0"/></linearGradient><linearGradient id="A" x1="289.923" x2="289.923" y1="-28.303" y2="272.522" gradientUnits="userSpaceOnUse"><stop stop-color="#333"/><stop offset="1" stop-color="#333" stop-opacity="0"/></linearGradient><linearGradient id="B" x1="289.949" x2="289.949" y1="-27.779" y2="254.632" gradientUnits="userSpaceOnUse"><stop stop-color="#333"/><stop offset="1" stop-color="#333" stop-opacity="0"/></linearGradient><linearGradient id="C" x1="289.936" x2="289.936" y1="-33.985" y2="240.086" gradientUnits="userSpaceOnUse"><stop stop-color="#333"/><stop offset="1" stop-color="#333" stop-opacity="0"/></linearGradient><linearGradient id="D" x1="289.936" x2="289.936" y1="-41.89" y2="234.873" gradientUnits="userSpaceOnUse"><stop stop-color="#333"/><stop offset="1" stop-color="#333" stop-opacity="0"/></linearGradient><linearGradient id="E" x1="289.923" x2="289.923" y1="-52.719" y2="226.088" gradientUnits="userSpaceOnUse"><stop stop-color="#333"/><stop offset="1" stop-color="#333" stop-opacity="0"/></linearGradient><linearGradient id="F" x1="289.936" x2="289.936" y1="-67.493" y2="217.394" gradientUnits="userSpaceOnUse"><stop stop-color="#333"/><stop offset="1" stop-color="#333" stop-opacity="0"/></linearGradient><linearGradient id="G" x1="289.961" x2="289.961" y1="-101.247" y2="208.338" gradientUnits="userSpaceOnUse"><stop stop-color="#333"/><stop offset="1" stop-color="#333" stop-opacity="0"/></linearGradient><linearGradient id="H" x1="289.936" x2="289.936" y1="-139.83" y2="197.744" gradientUnits="userSpaceOnUse"><stop stop-color="#333"/><stop offset="1" stop-color="#333" stop-opacity="0"/></linearGradient><linearGradient id="I" x1="289.936" x2="289.936" y1="-177.706" y2="185.296" gradientUnits="userSpaceOnUse"><stop stop-color="#333"/><stop offset="1" stop-color="#333" stop-opacity="0"/></linearGradient><linearGradient id="J" x1="289.923" x2="289.923" y1="-213.746" y2="168.815" gradientUnits="userSpaceOnUse"><stop stop-color="#333"/><stop offset="1" stop-color="#333" stop-opacity="0"/></linearGradient><linearGradient id="K" x1="289.923" x2="289.923" y1="-247.399" y2="141.485" gradientUnits="userSpaceOnUse"><stop stop-color="#333"/><stop offset="1" stop-color="#333" stop-opacity="0"/></linearGradient><linearGradient id="L" x1="289.936" x2="289.936" y1="-264.585" y2="104.975" gradientUnits="userSpaceOnUse"><stop stop-color="#333"/><stop offset="1" stop-color="#333" stop-opacity="0"/></linearGradient><linearGradient id="M" x1="289.936" x2="289.936" y1="-278.878" y2="67.624" gradientUnits="userSpaceOnUse"><stop stop-color="#333"/><stop offset="1" stop-color="#333" stop-opacity="0"/></linearGradient><linearGradient id="N" x1="289.936" x2="289.936" y1="-292.231" y2="30.119" gradientUnits="userSpaceOnUse"><stop stop-color="#333"/><stop offset="1" stop-color="#333" stop-opacity="0"/></linearGradient><linearGradient id="O" x1="289.949" x2="289.949" y1="-302.885" y2="-7.487" gradientUnits="userSpaceOnUse"><stop stop-color="#333"/><stop offset="1" stop-color="#333" stop-opacity="0"/></linearGradient><clipPath id="a"><path fill="#fff" d="M-672-332h1924V954H-672z"/></clipPath></defs></svg>